<?xml version="1.0" encoding="UTF-8"?>
<svg version="1.1" xmlns="http://www.w3.org/2000/svg" width="32" height="32">
<path d="M0 0 C10.56 0 21.12 0 32 0 C32 10.56 32 21.12 32 32 C21.44 32 10.88 32 0 32 C0 21.44 0 10.88 0 0 Z " fill="#FBFBFA" transform="translate(0,0)"/>
<path d="M0 0 C0.66 0.33 1.32 0.66 2 1 C3.23125293 4.69375878 3.46420032 8.15487401 3 12 C1.5 14.5 1.5 14.5 0 16 C2.64 16 5.28 16 8 16 C8 17.32 8 18.64 8 20 C3.71263662 20.64714919 -0.29263558 21.04065153 -4.625 20.9375 C-6.95562735 20.72620721 -6.95562735 20.72620721 -8 22 C-9.66617115 22.04063832 -11.33388095 22.042721 -13 22 C-14.1875 19.75 -14.1875 19.75 -15 17 C-14.03542166 15.64082143 -13.03145371 14.30915279 -12 13 C-11.70420837 9.45050049 -11.95331149 6.40173767 -13 3 C-12.401875 2.87625 -11.80375 2.7525 -11.1875 2.625 C-1.63478261 -0.10434783 -1.63478261 -0.10434783 0 0 Z " fill="#DDEEF4" transform="translate(20,5)"/>
<path d="M0 0 C0.99 0.33 1.98 0.66 3 1 C4.28317892 4.84953676 4.06643637 7.94738135 4 12 C-3.29113924 13.33670886 -3.29113924 13.33670886 -6.5 11.8125 C-8 10 -8 10 -8 6 C-6.49736177 2.99472353 -4.08347159 3.02782386 -1 2 C-0.67 1.34 -0.34 0.68 0 0 Z " fill="#C8EFEF" transform="translate(19,5)"/>
<path d="M0 0 C-0.6875 1.9375 -0.6875 1.9375 -2 4 C-4.625 4.75 -4.625 4.75 -7 5 C-7 5.99 -7 6.98 -7 8 C-7.33 8.66 -7.66 9.32 -8 10 C-4.36576791 12.32590854 -1.22911669 12.16265833 3 12 C2.01 13.485 2.01 13.485 1 15 C-2.48891843 15.53092237 -4.28793159 15.47471227 -7.25 13.5 C-9.63562297 10.09196718 -10.18574134 7.07129331 -11 3 C-6.98213116 0.99106558 -4.56087444 -0.12002301 0 0 Z " fill="#4DB299" transform="translate(19,5)"/>
<path d="M0 0 C1.79244141 0.01740234 1.79244141 0.01740234 3.62109375 0.03515625 C5.41740234 0.04869141 5.41740234 0.04869141 7.25 0.0625 C8.17683594 0.07410156 9.10367187 0.08570312 10.05859375 0.09765625 C10.38859375 1.41765625 10.71859375 2.73765625 11.05859375 4.09765625 C9.35703125 4.31421875 9.35703125 4.31421875 7.62109375 4.53515625 C4.25082174 4.70937103 4.25082174 4.70937103 3.05859375 6.09765625 C1.3924226 6.13829457 -0.2752872 6.14037725 -1.94140625 6.09765625 C-2.60140625 4.44765625 -3.26140625 2.79765625 -3.94140625 1.09765625 C-2.94140625 0.09765625 -2.94140625 0.09765625 0 0 Z " fill="#B5BEC0" transform="translate(8.94140625,20.90234375)"/>
<path d="M0 0 C0 1.98 0 3.96 0 6 C-6.48129797 8.50413785 -12.18491136 7.82810601 -19 7 C-19 6.67 -19 6.34 -19 6 C-17.58622218 5.63447197 -16.16879424 5.28304505 -14.75 4.9375 C-13.96109375 4.74027344 -13.1721875 4.54304688 -12.359375 4.33984375 C-9.87237148 3.98161642 -8.37575334 4.27407537 -6 5 C-5.34 5 -4.68 5 -4 5 C-3.87625 4.360625 -3.7525 3.72125 -3.625 3.0625 C-3.41875 2.381875 -3.2125 1.70125 -3 1 C-1 0 -1 0 0 0 Z " fill="#F1F2F0" transform="translate(32,20)"/>
<path d="M0 0 C0.66 0 1.32 0 2 0 C2.9546751 3.32201132 3.75739133 6.54546347 4 10 C2.125 13.125 2.125 13.125 0 15 C0 14.34 0 13.68 0 13 C-0.66 13 -1.32 13 -2 13 C-1.67257813 12.43796875 -1.34515625 11.8759375 -1.0078125 11.296875 C0.11785494 8.73140036 0.2068111 7.03157723 0.125 4.25 C0.10695313 3.45078125 0.08890625 2.6515625 0.0703125 1.828125 C0.04710937 1.22484375 0.02390625 0.6215625 0 0 Z " fill="#E6FCFE" transform="translate(22,8)"/>
<path d="M0 0 C0 1.32 0 2.64 0 4 C-2.31 4.33 -4.62 4.66 -7 5 C-7.33 3.68 -7.66 2.36 -8 1 C-5.07175348 0.02391783 -3.04386724 -0.08226668 0 0 Z " fill="#A1AEB4" transform="translate(28,21)"/>
<path d="M0 0 C0.33 1.32 0.66 2.64 1 4 C-1.31 4.33 -3.62 4.66 -6 5 C-6 4.34 -6 3.68 -6 3 C-6.66 3 -7.32 3 -8 3 C-8 2.34 -8 1.68 -8 1 C-5.29120665 -0.35439668 -2.99066732 -0.06501451 0 0 Z " fill="#9AA8AC" transform="translate(19,21)"/>
<path d="M0 0 C0.33 0.66 0.66 1.32 1 2 C4.52696809 4.44174714 7.82552867 4.16055659 12 4 C11.01 5.485 11.01 5.485 10 7 C7.125 7.4375 7.125 7.4375 4 7 C1.625 5.1875 1.625 5.1875 0 3 C0 2.01 0 1.02 0 0 Z " fill="#3E819F" transform="translate(10,13)"/>
<path d="M0 0 C0.99 0.66 1.98 1.32 3 2 C3.40843923 4.71203652 3.13336867 7.2437142 3 10 C0.36 10.33 -2.28 10.66 -5 11 C-4.67 10.34 -4.34 9.68 -4 9 C-3.01 9 -2.02 9 -1 9 C0.02212951 6.95574098 0.59167268 5.24580028 1 3 C0.67 2.01 0.34 1.02 0 0 Z " fill="#7EC6D1" transform="translate(20,7)"/>
<path d="M0 0 C1.2065625 0.0309375 1.2065625 0.0309375 2.4375 0.0625 C2.4375 2.0425 2.4375 4.0225 2.4375 6.0625 C1.4475 6.0625 0.4575 6.0625 -0.5625 6.0625 C-0.8925 5.0725 -1.2225 4.0825 -1.5625 3.0625 C-2.2225 2.4025 -2.8825 1.7425 -3.5625 1.0625 C-2.5625 0.0625 -2.5625 0.0625 0 0 Z " fill="#89D7D5" transform="translate(14.5625,8.9375)"/>
<path d="M0 0 C0.66 0 1.32 0 2 0 C2 0.99 2 1.98 2 3 C3.32 3 4.64 3 6 3 C6.33 2.34 6.66 1.68 7 1 C7 1.99 7 2.98 7 4 C4.6875 4.625 4.6875 4.625 2 5 C1.01 4.34 0.02 3.68 -1 3 C-0.67 2.01 -0.34 1.02 0 0 Z " fill="#C4F6FD" transform="translate(12,12)"/>
<path d="M0 0 C-0.66 1.32 -1.32 2.64 -2 4 C-2.33 3.34 -2.66 2.68 -3 2 C-4.65 2.33 -6.3 2.66 -8 3 C-5.53387212 -0.1151089 -3.89156016 -0.31553191 0 0 Z " fill="#78C898" transform="translate(19,5)"/>
</svg>
